<?xml version="1.0" encoding="UTF-8"?>
<svg xmlns="http://www.w3.org/2000/svg" viewBox="0 0 216 252">
  <defs>
    <style>
      .cls-1 {
        fill: #fff;
      }

      .cls-2 {
        fill: #942f4b;
      }
    </style>
  </defs>
  <g id="Background">
    <rect class="cls-2" width="216" height="252"/>
  </g>
  <g id="Logo">
    <path class="cls-1" d="M108.1,181.16h0c-18.59-23.66-43.39-41.67-71.63-52.04h0s0,0,0,0c16.75-24.99,26.23-54.14,27.36-84.21h0s0,0,0,0c28.94,8.21,59.6,8.21,88.54,0h0s0,0,0,0c1.13,30.06,10.61,59.22,27.36,84.21h0s0,0,0,0c-28.24,10.37-53.04,28.39-71.63,52.04h0Z"/>
    <path class="cls-2" d="M148.3,109.45c-.27-1.23-.69-2.37-1.25-3.41-.56-1.04-1.29-2-2.19-2.88-.9-.88-1.76-1.48-2.6-1.81-.83-.33-1.77-.5-2.82-.5-.92,0-1.85.16-2.79.47-.94.31-1.87.86-2.79,1.63-.92.77-1.73,1.81-2.44,3.1-.83,1.5-1.36,2.98-1.56,4.45l-2.88,19.95c-1.58-.33-2.73-.77-3.44-1.31-1-.79-1.8-1.92-2.41-3.38-.6-1.46-.91-3.27-.91-5.44,0-1.33.13-2.82.41-4.47.27-1.65.66-3.22,1.16-4.72,1.21-3.38,3.11-5.9,5.69-7.57.71-.37,1.44-.75,2.19-1.13l.19-1.13c-1,0-2.05.14-3.16.41-1.11.27-2.18.7-3.22,1.28-.22.13-.44.26-.65.39-.95.17-2.67,1.41-5.18,3.77l-.21.19c-3.91,3.58-7.01,6.14-9.35,7.66-2.32,1.54-4.39,2.36-6.22,2.46-1.68.09-3.17-.32-4.46-1.25-1.29-.93-2.25-2.26-2.86-4-.26-.75-.43-1.52-.51-2.32-.07-.8-.05-1.68.07-2.62,3.21-1.96,6.25-4.31,9.13-7.03,2.92-2.7,5.76-5.82,8.54-9.37-.15,1.03-.2,1.91-.15,2.65.05.74.17,1.44.38,2.1.5,1.59,1.4,2.83,2.72,3.72,1.31.89,2.85,1.3,4.63,1.25,3.71-.11,7.35-2.29,10.98-6.51,3.73-4.16,5.76-8.8,6.06-13.96,1.39.64,2.44,1.33,3.13,2.07.69.74,1.19,1.72,1.49,2.92.47,1.86.27,3.72-.59,5.6-.84,1.89-2.32,3.74-4.41,5.55-.34.33-.81.73-1.42,1.21-.89.67-1.29,1.16-1.2,1.48.02.09.11.18.26.28.15.1.28.15.4.14.27,0,.87-.31,1.79-.9.92-.59,1.84-1.32,2.74-2.18,1.8-1.69,3.06-3.49,3.78-5.41.73-1.92.85-3.87.35-5.87-.4-1.6-1.13-2.93-2.2-4-1.08-1.07-2.49-1.87-4.24-2.4-.06-.23-.11-.5-.16-.82-.05-.32-.09-.52-.11-.6-.61-2.38-1.89-4.2-3.83-5.45-1.95-1.25-4.52-1.91-7.69-1.97-4.69-.08-9.78,1.38-15.18,4.45-5.32,3.12-10,7.44-14.02,12.98-2.3,3.38-3.9,6.73-4.82,10.04-.89,3.33-1.1,6.57-.64,9.71-.97.32-1.86.56-2.66.72-.8.16-1.59.25-2.36.28-2.82.11-5.46-.72-7.92-2.5-2.47-1.79-4.28-4.17-5.42-7.13-1.7-4.43-1.1-8.86,1.87-13.23,3.06-4.32,7.82-7.34,14.25-9.09-.07-.03-.16-.05-.25-.05-1.75-.26-2.99-.4-3.72-.4-2.68-.02-5.27.57-7.74,1.8-2.46,1.24-4.48,2.96-6.04,5.18-1.43,2.1-2.27,4.42-2.51,6.95-.23,2.54.15,5.08,1.13,7.6,1.47,3.78,3.8,6.83,7,9.15,3.17,2.3,6.52,3.37,10.08,3.23.77-.03,1.53-.11,2.28-.24.75-.12,1.54-.3,2.36-.52.08.22.14.48.2.8.03.1.06.16.07.19l.34.94c.95,2.65,2.47,4.75,4.54,6.27,2.06,1.52,4.32,2.21,6.78,2.07,2-.11,4.14-.83,6.43-2.14,2.2-1.23,4.45-2.95,6.76-5.14-.68,1.5-1.14,3.07-1.36,4.72-2.37,6.51-4.86,11.51-7.54,14.95-3.24,4.34-7.28,6.75-12.18,7.19-4.1.37-7.94-.54-11.56-2.75-3.65-2.22-6.21-5.2-7.68-8.91-1.23-3.09-1.24-5.82-.01-8.18,1.24-2.34,3.32-3.57,6.22-3.71,1.93-.09,3.66.32,5.18,1.24,1.51.92,2.57,2.21,3.18,3.87.8,2.17.53,4.3-.78,6.41-1.29,2.12-3.35,3.66-6.17,4.63.65.18,1.28.31,1.89.38.61.07,1.18.08,1.71.04,2.62-.2,4.55-1.38,5.81-3.52,1.27-2.13,1.44-4.51.49-7.14-.81-2.22-2.34-4.03-4.61-5.44-2.28-1.41-4.7-2.06-7.26-1.94-3.47.16-5.91,1.51-7.3,4.07-1.37,2.58-1.33,5.68.12,9.3,1.75,4.4,4.73,7.84,8.89,10.32,4.12,2.45,8.66,3.44,13.65,2.98,3.91-.36,7.42-1.57,10.53-3.61,3.14-2.02,5.57-4.61,7.29-7.78.44-.81.87-1.81,1.31-2.98.92,2,2.33,3.58,4.23,4.74,1.42.88,3.82,1.65,7.19,2.31l-2.37,13.19h3.93s2.38-13.25,2.38-13.25c2.17,0,4.59-.71,7.26-2.13,2.04-1.08,3.73-2.28,5.07-3.6,1.34-1.31,2.51-2.92,3.54-4.82,1.02-1.9,1.7-3.83,2.03-5.79.12-.75.21-1.31.25-1.69.04-.38.06-.92.06-1.63,0-1.25-.14-2.49-.41-3.72ZM129.2,92.72c-3.43,4.12-6.92,6.25-10.55,6.34-1.09.03-2.11-.32-3.07-1.05-.96-.73-1.61-1.63-1.94-2.71-.55-1.77-.49-3.58.18-5.44.68-1.85,1.95-3.64,3.81-5.37,2.04-1.93,4.17-3.35,6.38-4.29,2.22-.93,4.53-1.38,6.91-1.37.6,0,1.2.05,1.79.14.59.09,1.21.22,1.86.4-.05,4.84-1.85,9.29-5.37,13.35ZM97.22,94.84c1.31-3.04,3.01-5.97,5.11-8.79,3.78-5.05,7.65-8.83,11.55-11.36,3.95-2.5,7.69-3.71,11.18-3.65,2.45.04,4.47.58,6.06,1.61,1.58,1.03,2.62,2.48,3.11,4.35l.29,1.12c-1.2-.21-2.08-.35-2.64-.43-.56-.08-1.06-.12-1.51-.12-5.79-.04-12.31,3.74-19.33,11.49-1.41,1.64-2.48,2.88-3.2,3.71-2.35,2.75-4.66,5.14-6.93,7.17-2.25,2.04-4.41,3.68-6.5,4.91.59-3.61,1.53-6.95,2.81-10.01ZM142.71,118.67c-.25,1.38-.48,2.25-.69,2.63-.67,1.63-1.32,2.9-1.95,3.82-.29.42-.86,1.04-1.7,1.88-1.42,1.46-3.02,2.48-4.77,3.07-.04,0-.96.19-2.76.56l2.33-17.13c.12-1.13.41-2.38.85-3.76.44-1.38.91-2.38,1.41-3.01.33-.38.71-.67,1.13-.88.42-.21.9-.31,1.44-.31.38,0,.84.13,1.38.38.54.25,1.14.82,1.79,1.72.65.9,1.1,1.78,1.35,2.66.25.88.41,1.55.47,2.03.06.48.09,1.26.09,2.35,0,1.29-.13,2.63-.38,4.01Z"/>
    <g>
      <path class="cls-1" d="M52.67,207.29h4.59v11.19h-3.78v-1.3c-1.51,1.12-3.45,1.67-5.83,1.67-2,0-3.84-.43-5.52-1.3s-3.01-2.13-4-3.8c-.99-1.66-1.49-3.64-1.49-5.94s.51-4.18,1.53-5.91c1.02-1.73,2.44-3.07,4.26-4.05,1.82-.97,3.86-1.46,6.14-1.46,1.9,0,3.63.32,5.18.96,1.55.64,2.85,1.57,3.91,2.79l-3.22,2.98c-1.55-1.63-3.42-2.45-5.61-2.45-1.38,0-2.61.29-3.69.88-1.08.59-1.91,1.42-2.51,2.5-.6,1.08-.9,2.31-.9,3.72s.29,2.72.88,3.75c.59,1.03,1.38,1.81,2.37,2.34s2.08.79,3.25.79c1.76,0,3.23-.5,4.43-1.49v-5.89Z"/>
      <path class="cls-1" d="M72.27,214.47c.67-.26,1.3-.67,1.88-1.22l2.57,2.79c-1.57,1.8-3.86,2.7-6.88,2.7-1.88,0-3.54-.37-4.99-1.1s-2.56-1.75-3.35-3.05c-.79-1.3-1.18-2.78-1.18-4.43s.39-3.1,1.16-4.42c.78-1.31,1.84-2.33,3.19-3.07s2.88-1.1,4.57-1.1c1.59,0,3.04.34,4.34,1.01,1.3.67,2.34,1.64,3.12,2.91.77,1.27,1.16,2.77,1.16,4.51l-12.34,2.39c.35.83.9,1.45,1.66,1.86.75.41,1.68.62,2.77.62.87,0,1.64-.13,2.31-.39ZM66.28,206.39c-.77.79-1.17,1.87-1.21,3.25l8.12-1.58c-.23-.87-.69-1.56-1.4-2.08-.7-.52-1.55-.77-2.54-.77-1.22,0-2.21.39-2.98,1.18Z"/>
      <path class="cls-1" d="M95.21,202.63c1.27.71,2.27,1.72,2.99,3.01.72,1.29,1.08,2.8,1.08,4.51s-.36,3.22-1.08,4.51c-.72,1.29-1.72,2.29-2.99,3.01-1.27.71-2.68,1.07-4.23,1.07-2.13,0-3.8-.67-5.02-2.01v7.78h-4.84v-22.69h4.62v1.92c1.2-1.45,2.95-2.17,5.24-2.17,1.55,0,2.96.36,4.23,1.07ZM93.2,213.51c.79-.84,1.19-1.96,1.19-3.36s-.4-2.53-1.19-3.36c-.8-.84-1.81-1.26-3.05-1.26s-2.26.42-3.05,1.26-1.19,1.96-1.19,3.36.4,2.53,1.19,3.36,1.81,1.26,3.05,1.26,2.26-.42,3.05-1.26Z"/>
      <path class="cls-1" d="M117.66,203.42c1.27,1.24,1.91,3.08,1.91,5.52v9.55h-4.84v-8.8c0-1.32-.29-2.31-.87-2.96-.58-.65-1.42-.98-2.51-.98-1.22,0-2.19.38-2.91,1.13-.72.75-1.08,1.88-1.08,3.36v8.25h-4.84v-23h4.84v8.06c.64-.64,1.42-1.13,2.32-1.47.91-.34,1.9-.51,2.98-.51,2.07,0,3.74.62,5.01,1.86Z"/>
      <path class="cls-1" d="M124.18,198.7c-.56-.52-.84-1.16-.84-1.92s.28-1.41.84-1.92c.56-.52,1.28-.78,2.17-.78s1.61.25,2.17.74c.56.5.84,1.12.84,1.86,0,.81-.28,1.47-.84,2-.56.53-1.28.79-2.17.79s-1.61-.26-2.17-.78ZM123.93,201.8h4.84v16.68h-4.84v-16.68Z"/>
      <path class="cls-1" d="M134.82,218.22c-1.32-.34-2.38-.77-3.16-1.29l1.61-3.47c.74.48,1.64.86,2.7,1.16,1.05.3,2.09.45,3.1.45,2.05,0,3.07-.51,3.07-1.52,0-.48-.28-.82-.84-1.02-.56-.21-1.42-.38-2.57-.53-1.36-.21-2.49-.44-3.38-.71-.89-.27-1.66-.74-2.31-1.43-.65-.68-.98-1.65-.98-2.91,0-1.05.3-1.99.91-2.81.61-.82,1.5-1.45,2.67-1.91,1.17-.45,2.55-.68,4.14-.68,1.18,0,2.35.13,3.52.39,1.17.26,2.13.61,2.9,1.07l-1.61,3.44c-1.47-.83-3.07-1.24-4.8-1.24-1.03,0-1.81.14-2.33.43-.52.29-.78.66-.78,1.12,0,.52.28.88.84,1.08.56.21,1.45.4,2.67.59,1.36.23,2.48.47,3.35.73.87.26,1.62.73,2.26,1.41.64.68.96,1.63.96,2.85,0,1.03-.31,1.95-.93,2.76s-1.52,1.43-2.71,1.88c-1.19.44-2.6.67-4.23.67-1.38,0-2.74-.17-4.06-.51Z"/>
      <path class="cls-1" d="M159.77,217.68c-.48.35-1.06.62-1.75.79-.69.18-1.41.26-2.15.26-2,0-3.54-.51-4.62-1.52-1.08-1.01-1.61-2.5-1.61-4.46v-14.63h4.84v4.06h4.12v3.72h-4.12v6.79c0,.7.18,1.25.53,1.63.35.38.86.57,1.52.57.74,0,1.4-.21,1.98-.62l1.27,3.41Z"/>
      <path class="cls-1" d="M165.71,217.63c-1.39-.73-2.49-1.75-3.27-3.05-.79-1.3-1.18-2.78-1.18-4.43s.39-3.13,1.18-4.43c.79-1.3,1.88-2.32,3.27-3.05,1.4-.73,2.97-1.1,4.73-1.1s3.33.37,4.71,1.1,2.47,1.75,3.25,3.05c.79,1.3,1.18,2.78,1.18,4.43s-.39,3.13-1.18,4.43c-.79,1.3-1.87,2.32-3.25,3.05s-2.96,1.1-4.71,1.1-3.33-.37-4.73-1.1ZM173.49,213.51c.79-.84,1.19-1.96,1.19-3.36s-.4-2.53-1.19-3.36c-.8-.84-1.81-1.26-3.05-1.26s-2.26.42-3.07,1.26c-.81.84-1.21,1.96-1.21,3.36s.4,2.53,1.21,3.36c.81.84,1.83,1.26,3.07,1.26s2.26-.42,3.05-1.26Z"/>
    </g>
  </g>
</svg>